<svg version="1" xmlns="http://www.w3.org/2000/svg" width="853.333" height="853.333" viewBox="0 0 640.000000 640.000000"><path d="M257.4 1.5c-10.5 2.8-23.9 10.2-30.4 16.8-1.8 1.8-13.1 16.4-25.2 32.4l-22 29.3-67.5.2-67.5.3-2.5 2.9c-2.4 2.8-2.4 3.2-2.1 17.3l.3 14.5 3 2.4c2.8 2.2 3.8 2.4 16.2 2.4 7.2 0 13.4.3 13.6.7.3.5.8 5 1.1 10.1.4 5.1.9 10 1 11 .2.9.7 6.4 1.1 12.2.4 5.8.8 10.7 1 11 .1.3.6 4.8 1 10.2.3 5.3.8 10.9 1 12.5.2 1.5.6 6.6 1 11.3.4 4.7.8 9.6 1 11 .2 1.4.7 5.9 1 10 .5 7.2 1 12.9 2 23.5 1.8 19.1 2.7 29.5 3 33 .6 8.3 1.6 20.1 2 23 .2 1.6.7 6.8 1 11.5.3 4.7.8 9.9 1 11.7.3 1.8.7 6.3 1 10 .5 6.6 1.2 14.2 2 23.3.2 2.5.7 7.6 1 11.5.4 3.8.8 9 1.1 11.5.2 2.5.6 7.2.9 10.5.3 3.3.7 8 1 10.5.2 2.5.7 7.9 1 12 .4 4.1.8 8.6 1 10 .2 1.4.6 6.3 1 11s.8 10.1 1 12c.2 1.9.6 7.1 1 11.6.3 4.5.7 9.2 1 10.5.2 1.3.6 6.5 1 11.6.3 5 .8 10.2 1 11.5.2 1.3.6 5.9 1 10.3.3 4.4.8 9.8 1 12 .5 4.6 1.3 14.4 2 23 .3 3.3.7 8.4 1 11.3 1 10.3 2.2 24 3.1 34.2 1.4 17.7 6.7 29.4 18.5 41.2 6 6 9.5 8.5 16 11.6 4.6 2.2 10.7 4.5 13.4 5 7.2 1.6 305.7 1.6 314 .1 23.1-4.3 44.4-26.2 48-49.4.4-2.1 1.2-11.2 2-20.5.3-3 .7-8.4 1-12 1.2-12.3 1.4-14.5 2-22 .3-4.1.8-9.3 1-11.5.3-2.2.7-7.2 1-11 .3-3.9.7-8.8 1-11 .8-7.7 2.1-21.7 3-34.1.3-4.5.7-9 .9-10 .2-1.1.7-6.2 1-11.5.4-5.2.8-10.6 1.1-11.9.2-1.4.6-6.1.9-10.5.4-4.4.8-9.6 1-11.5.3-1.9.7-7.1 1.1-11.5.3-4.4.8-9.4 1-11 .2-1.7.7-6.6 1-11 .4-4.4.8-9.8 1.1-12 .5-5.2 1.2-13.2 1.9-22 1.1-13.6 1.5-17.8 2-21.9.2-2.2.7-7.5 1-11.6.4-4.1.8-9.5 1.1-12 .2-2.5.6-7.4.9-11 .3-3.6.7-8.1 1-10 .2-1.9.7-6.9 1-11 .3-4.1.7-9.5 1-12 .2-2.5.7-7.7 1-11.5.3-3.9.8-8.6 1-10.5.3-1.9.7-7.3 1-12 .3-4.7.8-9.6 1-11 .2-1.4.6-6.3 1-11s.8-9.8 1-11.4c.2-1.5.7-6.9 1-12 .4-5 .8-9.8 1-10.6.1-.8.6-6 1-11.5s.8-10.7 1-11.5c.2-.9.6-5.6 1-10.6.4-4.9.8-9.4.9-9.9 0-.6 6-1.2 14.3-1.5 19.4-.7 18.8 0 18.8-20 0-14.2-.1-15.1-2.3-17.2l-2.3-2.3-67.3-.3-67.4-.2-14.3-19.3C438 50.2 431.3 41.3 431 41c-.3-.3-4-5.2-8.4-11-8.8-11.8-16.2-18.2-26.8-23.3C381.8 0 382.7 0 319.5.1c-44.8 0-58.1.3-62.1 1.4zm118.1 40c4.7 1.4 8 3.7 11.5 8.1 4.6 5.9 22 29.4 22 29.9 0 .3-40 .5-89 .5s-89-.2-89-.5c0-1.1 23.6-32.1 25.9-34 6.5-5.4 5.6-5.3 61.6-5.4 43.4-.1 52.9.1 57 1.4zm150.1 84.7c-.8 7.8-1.5 15.8-2.1 22.3-.6 7.2-1.5 17.2-2 23-.3 2.7-.7 8.1-1 12-.3 3.8-.7 8.8-1 11-.2 2.2-.7 7.1-1 11-.3 3.8-.8 8.8-1 11-.9 9.1-1.7 18.3-1.9 22.2-.1 2.3-.4 4.5-.7 4.7-.6.7-12.4 2-26.4 3.1-4.4.3-9.3.8-11 1-1.6.2-6.6.7-11 1-4.4.4-9.1.8-10.5 1-1.4.2-6.3.6-11 1s-9.6.8-11 1c-2.3.3-7.1.8-20 2-2.5.2-8.1.7-12.5 1.1-4.4.3-8.8.8-9.8 1-1 .2-5.9.6-10.8.9-4.9.3-9.7.8-10.8 1-1 .2-6.5.7-12.2 1-5.7.4-10.6.9-10.9 1-.3.2-4.5.6-9.5 1-4.9.4-10.1.8-11.5 1.1-1.4.2-6.5.6-11.5.9-4.9.4-9.7.8-10.5 1-.8.3-4.9.7-9 1-12 1-27.5 2.4-33 3-1.9.2-6.9.7-11 1-4.1.4-8.6.8-10 1-1.4.2-6.3.7-11 1-4.7.4-9.8.8-11.4 1-1.7.2-6.6.7-11 1-4.5.4-9.4.8-11.1 1-1.6.1-6.1.6-10 .9-3.8.4-8.6.9-10.5 1.1-1.9.3-7.1.7-11.5 1-4.4.4-9.1.8-10.5 1-1.4.2-6.1.7-10.5 1-4.4.4-9.7.8-11.7 1-3.5.4-3.8.2-3.9-2.3-.1-1.5-.3-3.6-.4-4.7-.1-1.1-.6-6.1-.9-11-.4-5-.9-10.4-1.1-12-.2-1.7-.7-6.4-1-10.5-.3-4.1-.7-9.3-1-11.5-.5-5.1-1.4-15.3-2-23-.3-3.3-.7-7.8-1-10-.2-2.2-.7-7.6-1-12-.3-4.4-.7-9.6-1-11.5-.2-1.9-.6-6.2-.9-9.5-.3-3.3-.8-9.2-1.2-13-.3-3.9-.8-8.8-.9-11-.2-2.2-.7-7-1-10.8l-.6-6.7H526.2l-.6 6.2z"/></svg>